
<!-- Suggested code may be subject to a license. Learn more: ~LicenseLog:1635532264. -->
<?xml version="1.0" standalone="no"?>
<!DOCTYPE svg PUBLIC "-//W3C//DTD SVG 1.1//EN" "http://www.w3.org/Graphics/SVG/1.1/DTD/svg11.dtd">
<svg xmlns="http://www.w3.org/2000/svg" id="Layer_1" data-name="Layer 1" viewBox="0 0 756 222" width="756" height="222"><defs><style>.cls-1{fill:#fff;}</style></defs><title>Artboard 2</title><path class="cls-1" d="M234.13,133.59V80.08h24.46a30.88,30.88,0,0,1,12.65,2.37,18.54,18.54,0,0,1,8.22,6.84,19.05,19.05,0,0,1,2.9,10.59A17.76,17.76,0,0,1,271.24,117a31.4,31.4,0,0,1-12.65,2.33h-16l6.72-6.34v20.56Zm15.13-19-6.72-7h15.13c3.16,0,5.52-.68,7.07-2.06a7.27,7.27,0,0,0,2.33-5.73,7.37,7.37,0,0,0-2.33-5.81Q262.41,92,257.67,92H242.54l6.72-7Zm18,19-13.29-19.5h16.12l13.38,19.5Z"/><path class="cls-1" d="M319.2,134.66q-11.85,0-18.5-6.5t-6.65-18.42V80.08h15.14v29.2q0,6.89,2.71,9.86a10.77,10.77,0,0,0,14.87,0q2.67-3,2.67-9.86V80.08h14.91v29.66q0,11.92-6.65,18.42T319.2,134.66Z"/><path class="cls-1" d="M350.84,133.59l23.62-53.51h14.91l23.69,53.51H397.32L378.82,87.5h6l-18.5,46.09Zm12.92-10.4,3.9-11.16H393.8l3.9,11.16Z"/><path class="cls-1" d="M421.16,133.59V80.08h12.46l29.51,35.62h-5.89V80.08h14.83v53.51H459.61L430.11,98H436v35.62Z"/><path class="cls-1" d="M513.34,134.66a33.41,33.41,0,0,1-11.77-2,27.08,27.08,0,0,1-9.36-5.77,26.7,26.7,0,0,1-6.15-8.83,29.34,29.34,0,0,1,0-22.39,26.42,26.42,0,0,1,6.19-8.83A27.43,27.43,0,0,1,501.69,81a36.95,36.95,0,0,1,25.49.49A25.41,25.41,0,0,1,537,88.79l-9.63,8.72A19.16,19.16,0,0,0,521.48,93a16.31,16.31,0,0,0-7.07-1.49,17.39,17.39,0,0,0-6.26,1.07,13.15,13.15,0,0,0-4.82,3.09,14.15,14.15,0,0,0-3.09,4.82,18.15,18.15,0,0,0,0,12.5,14.08,14.08,0,0,0,3.09,4.85,13.74,13.74,0,0,0,4.78,3.13,16.5,16.5,0,0,0,6.15,1.11,20,20,0,0,0,6.57-1.11,21.66,21.66,0,0,0,6.5-3.78l8.49,10.62a34.74,34.74,0,0,1-10.63,5.05A42.28,42.28,0,0,1,513.34,134.66Zm9.1-8.79V105.69h13.38v22.16Z"/><path class="cls-1" d="M542.85,133.59l23.61-53.51h14.91l23.69,53.51H589.32L570.82,87.5h6l-18.49,46.09Zm12.91-10.4,3.9-11.16H585.8l3.9,11.16Z"/><path class="cls-1" d="M613.17,133.59V80.08h24.46a30.91,30.91,0,0,1,12.65,2.37,18.46,18.46,0,0,1,8.21,6.84,19,19,0,0,1,2.91,10.59,18.08,18.08,0,0,1-11.12,17.31,30.41,30.41,0,0,1-12.65,2.41H621.57L628.3,113v20.56Zm15.13-19-6.73-7h15.14c3.16,0,5.51-.68,7.07-2.06a7.27,7.27,0,0,0,2.33-5.73,7.37,7.37,0,0,0-2.33-5.81c-1.56-1.38-3.91-2.07-7.07-2.07H621.57l6.73-7Z"/><path class="cls-1" d="M672.56,133.59V80.08H697a30.91,30.91,0,0,1,12.65,2.37,18.46,18.46,0,0,1,8.21,6.84,19,19,0,0,1,2.91,10.59,18.08,18.08,0,0,1-11.12,17.31A30.41,30.41,0,0,1,697,119.6H681l6.73-6.57v20.56Zm15.13-19-6.73-7H696.1c3.16,0,5.51-.68,7.07-2.06a7.27,7.27,0,0,0,2.33-5.73,7.37,7.37,0,0,0-2.33-5.81c-1.56-1.38-3.91-2.07-7.07-2.07H681l6.73-7Z"/><polygon class="cls-1" points="91.2 92.89 89.24 104.66 114.4 104.66 109.28 92.89 91.2 92.89"/><path class="cls-1" d="M183.41,21.75h-131A23.72,23.72,0,0,0,28.64,45.48v131a23.72,23.72,0,0,0,23.73,23.73h131a23.73,23.73,0,0,0,23.73-23.73v-131A23.73,23.73,0,0,0,183.41,21.75Zm-6.82,67.5a39.14,39.14,0,0,1-34.66,33.32l23.69,54.54H145.87l-23.6-54.34h-36l-9,54.34H58.81l12-72.27v-.18h0l5-29.89h45.3l13,29.89H138A20.83,20.83,0,0,0,138,63H77.77l3-18.11H138a38.93,38.93,0,0,1,38.56,44.36Z"/></svg>